<?xml version="1.0" encoding="UTF-8" standalone="no"?>
<!-- Created with Inkscape (http://www.inkscape.org/) -->

<svg
   xmlns:dc="http://purl.org/dc/elements/1.1/"
   xmlns:cc="http://creativecommons.org/ns#"
   xmlns:rdf="http://www.w3.org/1999/02/22-rdf-syntax-ns#"
   xmlns:svg="http://www.w3.org/2000/svg"
   xmlns="http://www.w3.org/2000/svg"
   xmlns:sodipodi="http://sodipodi.sourceforge.net/DTD/sodipodi-0.dtd"
   xmlns:inkscape="http://www.inkscape.org/namespaces/inkscape"
   width="210mm"
   height="297mm"
   viewBox="0 0 210 297"
   version="1.1"
   id="svg21759"
   inkscape:version="0.92.4 (5da689c313, 2019-01-14)"
   sodipodi:docname="pizza slice.svg">
  <defs
     id="defs21753">
    <clipPath
       clipPathUnits="userSpaceOnUse"
       id="clipPath18">
      <path
         d="M 0,800 H 650 V 0 H 0 Z"
         id="path16"
         inkscape:connector-curvature="0" />
    </clipPath>
    <clipPath
       clipPathUnits="userSpaceOnUse"
       id="clipPath6722">
      <path
         d="M 0,800 H 650 V 0 H 0 Z"
         id="path6720"
         inkscape:connector-curvature="0" />
    </clipPath>
    <clipPath
       clipPathUnits="userSpaceOnUse"
       id="clipPath13902">
      <path
         d="M 0,800 H 650 V 0 H 0 Z"
         id="path13900"
         inkscape:connector-curvature="0" />
    </clipPath>
    <clipPath
       clipPathUnits="userSpaceOnUse"
       id="clipPath20442">
      <path
         d="M 0,800 H 650 V 0 H 0 Z"
         id="path20440"
         inkscape:connector-curvature="0" />
    </clipPath>
    <clipPath
       clipPathUnits="userSpaceOnUse"
       id="clipPath20662">
      <path
         d="M 0,800 H 650 V 0 H 0 Z"
         id="path20660"
         inkscape:connector-curvature="0" />
    </clipPath>
    <clipPath
       id="clipPath1014"
       clipPathUnits="userSpaceOnUse">
      <path
         inkscape:connector-curvature="0"
         id="path1012"
         d="M 0,953.303 H 925.484 V 0 H 0 Z" />
    </clipPath>
    <clipPath
       id="clipPath11793"
       clipPathUnits="userSpaceOnUse">
      <path
         inkscape:connector-curvature="0"
         id="path11791"
         d="M 0,833.76 H 1059.617 V 0 H 0 Z" />
    </clipPath>
    <clipPath
       id="clipPath12164"
       clipPathUnits="userSpaceOnUse">
      <path
         inkscape:connector-curvature="0"
         id="path12162"
         d="M 0,1116.228 H 1499.1 V 0 H 0 Z" />
    </clipPath>
  </defs>
  <sodipodi:namedview
     id="base"
     pagecolor="#ffffff"
     bordercolor="#666666"
     borderopacity="1.0"
     inkscape:pageopacity="0.0"
     inkscape:pageshadow="2"
     inkscape:zoom="0.3236263"
     inkscape:cx="64.797639"
     inkscape:cy="696.69438"
     inkscape:document-units="mm"
     inkscape:current-layer="g12156"
     showgrid="false"
     showguides="true"
     inkscape:guide-bbox="true"
     inkscape:window-width="1920"
     inkscape:window-height="1001"
     inkscape:window-x="-9"
     inkscape:window-y="-9"
     inkscape:window-maximized="1">
    <sodipodi:guide
       position="176.69565,253.35726"
       orientation="0,1"
       id="guide22306"
       inkscape:locked="false" />
    <sodipodi:guide
       position="235.5942,43.94019"
       orientation="0,1"
       id="guide22308"
       inkscape:locked="false" />
  </sodipodi:namedview>
  <metadata
     id="metadata21756">
    <rdf:RDF>
      <cc:Work
         rdf:about="">
        <dc:format>image/svg+xml</dc:format>
        <dc:type
           rdf:resource="http://purl.org/dc/dcmitype/StillImage" />
        <dc:title></dc:title>
      </cc:Work>
    </rdf:RDF>
  </metadata>
  <g
     inkscape:label="Layer 1"
     inkscape:groupmode="layer"
     id="layer1">
    <g
       transform="matrix(0.35277777,0,0,-0.35277777,-0.22062239,367.45296)"
       inkscape:label="eyes-line-art-5019556"
       id="g1006">
      <g
         id="g1008">
        <g
           transform="translate(-1819.604,207.06223)"
           inkscape:label="icons-4819657"
           id="g12156">
          <g
             id="g132"
             transform="matrix(3.6060052,0,0,3.6060052,2341.0951,170.63003)">
            <path
               d="M 0,0 0.295,-0.595 C -0.361,-0.991 -0.886,-1.189 -1.28,-1.189 l -0.294,0.594 C -0.919,-0.198 -0.394,0 0,0 M -1.87,4.161 V 3.863 c 0,-0.331 0.394,-0.759 1.181,-1.288 L 0,3.468 C 0,3.929 -0.23,4.161 -0.689,4.161 Z M -0.984,5.746 0.591,3.863 V 2.873 C 0.394,2.212 -0.23,1.882 -1.28,1.882 c -0.328,0 -0.754,0.43 -1.279,1.288 v 0.991 c 0,0.264 0.525,0.793 1.575,1.585 m -3.445,11.99 c 0.656,-1.057 0.984,-1.917 0.984,-2.576 h 0.296 v 1.288 l -0.296,1.585 c -0.459,-0.198 -0.787,-0.297 -0.984,-0.297 m 0,26.555 h 0.296 c 0.458,-0.067 0.688,-0.265 0.688,-0.595 h -0.393 c 0.261,-0.464 0.393,-0.793 0.393,-0.991 -0.263,-1.255 -0.59,-1.883 -0.984,-1.883 l -0.295,0.595 c 0.197,1.189 0.295,2.146 0.295,2.874 m 0.591,4.459 h 0.689 c 0,-0.729 0.098,-1.257 0.295,-1.586 l -1.279,-0.99 -0.591,0.99 v 0.595 c 0,0.329 0.295,0.66 0.886,0.991 M -6.003,34.481 h 0.983 v -0.297 c 0,-0.396 -0.23,-0.595 -0.688,-0.595 h -0.295 z m 0,20.61 h 0.295 V 54.1 c 0,-0.595 0.229,-1.223 0.688,-1.883 l -0.688,-0.297 -0.886,1.189 v 1.288 c 0.065,0.461 0.261,0.694 0.591,0.694 M -6.594,25.96 c 0.197,-0.397 0.295,-0.728 0.295,-0.991 -0.329,-0.793 -0.657,-1.19 -0.984,-1.19 h -0.295 v 1.884 c 0.197,0 0.524,0.099 0.984,0.297 m -0.984,28.734 c 0.852,-1.52 1.279,-3.205 1.279,-5.053 v -0.595 c 0,-0.792 -0.098,-1.75 -0.295,-2.872 0.591,-2.181 0.886,-4.295 0.886,-6.343 -0.197,-1.057 -0.295,-1.684 -0.295,-1.882 l 0.295,-1.883 h -0.591 c -0.197,0 -0.295,0.099 -0.295,0.298 l -0.689,-0.298 h -0.295 c -0.59,0.199 -0.886,0.826 -0.886,1.883 v 0.297 c 0.065,0.462 0.262,0.694 0.591,0.694 0.59,0 0.885,-0.628 0.885,-1.882 h 0.394 v 2.178 c 0,1.718 -0.231,3.601 -0.689,5.65 0.197,0.461 0.295,0.792 0.295,0.99 -0.393,0 -0.59,0.329 -0.59,0.991 0.393,1.254 0.59,2.279 0.59,3.071 -0.787,2.312 -1.18,3.797 -1.18,4.459 z M -9.153,25.365 c 0.459,-0.066 0.689,-0.297 0.689,-0.693 h -0.689 z m -0.295,33.49 c 1.049,0 1.673,-0.859 1.87,-2.575 -0.197,-0.331 -0.295,-0.728 -0.295,-1.189 h -0.591 v 0.891 c 0,0.793 -0.526,1.651 -1.575,2.578 z m -1.28,-52.514 h 0.689 l 0.295,-3.171 -0.688,-0.297 -0.296,0.595 z m 0,-6.341 h 0.689 v -2.478 l 0.295,-0.693 -0.688,-0.297 c -0.394,0.726 -0.591,1.353 -0.591,1.883 z m 0,21.798 c 0.197,-0.396 0.296,-0.694 0.296,-0.892 0,-1.386 0.131,-5.385 0.393,-11.988 h -0.689 l -0.59,12.583 z M -12.007,7.927 h 0.689 V 6.639 h -0.689 z m 0,54.099 h 0.394 v 0.595 h -0.394 z m -0.886,-38.94 c 0.394,-0.926 0.591,-2.278 0.591,-4.062 v -1.586 h -0.591 v 0.298 c 0,0.726 -0.231,2.41 -0.689,5.053 z m -0.689,44.588 0.394,-0.594 v -6.342 h -0.689 v 3.469 l -0.295,3.171 z m -0.295,8.224 c 0.328,0 0.753,-0.43 1.28,-1.288 l -0.591,-0.297 h -0.394 c -0.263,0 -0.558,0.33 -0.885,0.992 0.065,0.395 0.261,0.593 0.59,0.593 m -0.59,-20.807 c 0,-0.331 -0.197,-0.761 -0.591,-1.288 l 1.476,-0.298 h 0.394 c -0.46,0.925 -0.886,1.453 -1.279,1.586 m -1.28,14.862 h 0.689 c 0.591,-2.774 0.886,-4.69 0.886,-5.746 h -0.591 c 0,0.792 -0.329,2.708 -0.984,5.746 m -0.885,-38.346 h 1.18 c 0.459,-1.123 0.689,-1.751 0.689,-1.882 l -0.689,-0.297 c -0.263,1.056 -0.656,1.585 -1.18,1.585 z m 0.59,7.036 v -0.694 h -0.59 c 0.064,0.461 0.261,0.694 0.59,0.694 m -0.984,10.701 v -1.585 c 0,-1.521 0.525,-2.346 1.574,-2.478 0.262,0 0.788,0.529 1.575,1.586 l 0.295,-0.693 v -0.298 c 0,-0.396 -0.295,-0.595 -0.885,-0.595 v -0.99 c 1.639,0 2.46,0.956 2.46,2.873 v 1.586 h -0.295 c -0.657,-0.463 -1.28,-0.694 -1.87,-0.694 -0.591,0.198 -1.117,0.956 -1.575,2.278 l 0.984,1.586 h -0.295 c -1.313,-0.463 -1.968,-1.322 -1.968,-2.576 m -1.182,-18.925 h 0.591 l 4.724,-4.459 v -0.595 c -1.247,0 -3.019,1.552 -5.315,4.657 z m 0,25.563 h 2.756 c 1.903,-0.331 2.855,-1.387 2.855,-3.17 h -1.87 l -0.591,0.297 -0.394,-0.594 2.264,-0.298 V 51.92 l -1.279,-1.288 v -0.298 c 0.787,0.595 1.508,0.893 2.165,0.893 l -0.295,1.585 c 0.393,0 0.59,-0.728 0.59,-2.18 -1.378,-0.86 -2.199,-1.288 -2.46,-1.288 v -0.298 h 0.885 l 1.969,1.288 0.295,-0.693 v -2.774 c -0.197,-2.378 -1.05,-3.567 -2.559,-3.567 -2.888,1.055 -4.331,2.442 -4.331,4.162 v 1.584 c 0,1.718 0.919,3.831 2.756,6.342 v 0.298 l -2.165,-0.298 h -0.591 z m -0.983,22.789 h 0.295 c 1.902,-2.114 3.181,-4.029 3.838,-5.746 0.328,0 1.049,-0.925 2.165,-2.775 0.591,0 1.213,-1.684 1.87,-5.053 0,-0.529 -0.098,-0.959 -0.295,-1.288 0,-0.463 0.623,-1.421 1.87,-2.873 0,-0.396 -0.197,-0.595 -0.591,-0.595 0,0.33 -0.427,0.759 -1.279,1.289 v -2.578 h -0.984 c -0.394,1.85 -0.591,3.336 -0.591,4.46 0.394,0.199 0.689,0.297 0.886,0.297 v 0.298 c 0,2.708 -0.821,4.722 -2.46,6.043 0,0.926 -0.625,1.85 -1.87,2.775 0,0.858 -0.952,2.443 -2.854,4.756 z m -0.985,-37.949 c 2.756,-0.529 4.134,-1.056 4.134,-1.586 V 38.94 c -0.329,0 -1.707,0.296 -4.134,0.891 z m -1.18,-6.044 h 0.295 c 0.458,0 0.984,-0.925 1.574,-2.774 h -0.689 c -0.525,0 -0.919,0.825 -1.18,2.477 z m 0.59,27.248 0.295,-0.693 h -0.885 c 0.064,0.461 0.261,0.693 0.59,0.693 m -0.59,21.204 h 0.295 c 0.524,0 0.95,-0.858 1.279,-2.576 v -0.297 h -0.394 c -0.393,0 -0.787,0.957 -1.18,2.873 m -0.985,-34.778 c 0,-0.265 0.098,-0.396 0.296,-0.396 -0.394,-0.661 -0.591,-1.287 -0.591,-1.882 v -0.298 l 0.886,0.595 h 0.394 v -1.19 l -0.394,-0.693 c -0.984,0.264 -1.477,0.595 -1.477,0.991 v 1.883 c 0,0.329 0.296,0.659 0.886,0.99 m -0.295,30.023 h 0.295 v -1.287 h -0.886 v 0.593 c 0.065,0.462 0.262,0.694 0.591,0.694 m -0.591,7.53 h 0.591 c 0.327,0 0.753,-0.397 1.28,-1.189 V 84.42 h -0.394 c -0.92,0.461 -1.412,0.892 -1.477,1.288 z m -0.689,-49.939 c 1.049,-0.264 1.575,-0.561 1.575,-0.891 l -0.59,-0.397 c 0,0.461 -0.329,0.694 -0.985,0.694 z m -0.59,12.386 h 0.591 v -2.576 h -0.591 z m 0,13.574 h 2.165 c 0,-0.463 -0.624,-0.792 -1.87,-0.99 l -0.295,0.694 z m 0.59,19.916 c 0.459,-0.066 0.689,-0.296 0.689,-0.693 0,-0.396 -0.23,-0.595 -0.689,-0.595 l -0.59,0.992 z m -0.59,10.108 h 0.59 c 0.328,0 0.656,-0.332 0.985,-0.991 l -0.689,-0.298 c -0.394,0.199 -0.689,0.298 -0.886,0.298 z m -0.295,-41.418 0.295,-0.694 c -0.984,-2.708 -1.609,-4.062 -1.87,-4.062 0,0.197 -0.132,0.298 -0.394,0.298 0.918,2.972 1.575,4.458 1.969,4.458 m -0.984,1.585 c 0,-0.197 0.098,-0.297 0.295,-0.297 -0.46,-1.52 -0.886,-2.279 -1.28,-2.279 v 0.297 c 0.262,1.519 0.591,2.279 0.985,2.279 m -0.985,18.628 h 5.02 c 0.458,-0.067 0.689,-0.264 0.689,-0.595 l -0.689,-0.297 h -5.02 z m 0,13.971 h 0.985 c 0.393,-0.067 0.59,-0.297 0.59,-0.693 v -0.595 h -0.295 c -0.854,0.329 -1.28,0.626 -1.28,0.892 z m 0,-35.472 V 48.75 c -0.196,-0.662 -0.393,-0.991 -0.59,-0.991 l 0.296,-0.595 c 0,-0.463 -0.198,-0.693 -0.591,-0.693 h -0.296 v 0.396 c 0.262,1.519 0.656,2.344 1.181,2.477 m -1.87,45.877 h 0.296 c 1.181,-0.794 2.362,-2.577 3.543,-5.352 0.787,0 1.181,-0.529 1.181,-1.586 h -0.591 c -1.313,0.66 -2.264,2.114 -2.853,4.361 -0.264,0 -0.788,0.627 -1.576,1.883 z m 0,2.178 h 0.296 c 2.362,-1.454 3.543,-2.807 3.543,-4.061 h -0.689 l -3.15,3.468 z m -1.87,-6.935 h 0.69 c 0,-0.991 0.492,-2.148 1.476,-3.468 v -0.694 h -0.296 c -1.247,0.726 -1.87,1.916 -1.87,3.567 z M -31.1,82.24 v -0.298 h 1.575 c -0.197,0.33 -0.295,0.759 -0.295,1.288 h -0.394 c -0.263,0 -0.558,-0.331 -0.886,-0.99 m -0.295,18.33 h 0.295 c 0.328,0 0.753,-0.429 1.28,-1.288 l -0.394,-0.594 c -0.788,0.33 -1.181,0.627 -1.181,0.892 z m 0,-56.874 c 0.393,-0.067 0.59,-0.298 0.59,-0.694 l 0.591,0.298 c 1.245,0 2.197,-0.926 2.854,-2.776 l -0.591,-0.295 c 0,1.188 -1.148,1.915 -3.444,2.179 h -0.689 v 0.594 c 0.064,0.462 0.295,0.694 0.689,0.694 m -0.394,54.001 c 1.902,-0.529 2.854,-1.057 2.854,-1.586 l -0.59,-0.297 c -1.707,0.595 -2.559,1.123 -2.559,1.585 0.197,0 0.295,0.1 0.295,0.298 m 2.264,-13.277 c 1.442,-1.256 2.165,-1.982 2.165,-2.18 v -0.298 c 0,-0.66 -1.149,-0.99 -3.445,-0.99 h -0.59 c -0.329,0 -0.657,0.33 -0.984,0.99 0.524,1.651 1.476,2.478 2.854,2.478 m -2.559,7.927 c 0.852,-1.058 1.279,-1.685 1.279,-1.883 l -0.59,-0.298 c -0.329,0 -0.755,0.528 -1.28,1.586 0.065,0.396 0.262,0.595 0.591,0.595 M -32.97,66.09 h 0.295 c 1.246,-0.729 1.87,-1.356 1.87,-1.883 l 0.591,0.297 h 0.394 l 0.885,-0.595 h 0.591 c 0.261,0 0.393,0.099 0.393,0.298 1.639,-0.396 2.461,-0.827 2.461,-1.288 v -0.298 l -1.574,-0.297 c 0,0.33 -1.347,0.858 -4.036,1.585 0,-0.198 -0.098,-0.297 -0.295,-0.297 l -1.575,1.883 z m -0.984,52.811 v -0.297 c 0,-0.991 0.328,-2.774 0.984,-5.35 h 0.295 l 0.296,1.585 v 0.298 c -0.329,2.509 -0.854,3.764 -1.575,3.764 m -1.574,-89.473 h 0.294 v 0.595 h -0.294 z m 0.59,15.16 h 0.394 l 0.59,-2.775 -0.59,-0.396 c -0.658,1.189 -0.984,2.146 -0.984,2.874 z m 1.279,58.163 c 0.262,-1.454 0.886,-2.809 1.87,-4.063 -0.197,0 -0.295,-0.099 -0.295,-0.297 -0.329,0 -0.952,0.527 -1.87,1.585 l -1.574,-0.396 v 0.396 c 0,0.396 0.524,0.594 1.574,0.594 l -0.296,1.586 c 0.065,0.396 0.262,0.595 0.591,0.595 m 0,-29.726 h 0.984 v -0.594 c -1.247,0 -1.869,-1.356 -1.869,-4.063 0.393,-0.066 0.59,-0.297 0.59,-0.694 0,-0.396 -0.197,-0.594 -0.59,-0.594 l -1.28,0.892 c 0.59,3.369 1.312,5.053 2.165,5.053 m -2.756,6.639 c 0.328,0 0.951,-0.727 1.871,-2.181 V 76.89 h -0.394 c -0.59,0 -1.083,0.923 -1.477,2.774 m -0.393,-39.833 h 0.689 v -0.595 c 0,-0.726 0.098,-1.255 0.295,-1.584 l -0.295,-1.882 v -2.874 h -0.689 z m 0,52.516 v -0.892 l 0.689,0.297 h 0.295 l 0.59,-0.297 v 0.595 c 0,0.395 -0.196,0.594 -0.59,0.594 -0.394,-0.199 -0.723,-0.297 -0.984,-0.297 m -0.296,-45.876 h 0.689 c 0.394,-2.644 0.591,-4.196 0.591,-4.658 h -0.591 c -0.46,1.585 -0.689,3.039 -0.689,4.361 z m 0.689,9.215 h 0.296 c 2.033,-1.455 3.804,-2.181 5.314,-2.181 V 53.109 L -31.1,52.515 c -1.247,0 -3.248,0.957 -6.004,2.873 z m -0.689,13.871 c 0,-3.304 2.821,-6.672 8.464,-10.107 2.427,-0.595 4.429,-0.89 6.004,-0.89 3.149,1.451 4.724,3.334 4.724,5.647 -0.197,0 -0.296,0.099 -0.296,0.297 l -1.574,-0.297 h -0.984 v 0.99 h 1.87 c 0.458,0 0.688,0.199 0.688,0.595 h -0.393 c -1.116,-0.198 -1.936,-0.297 -2.46,-0.297 v 0.297 c 0,0.396 0.721,0.726 2.165,0.991 l -0.295,0.595 -2.165,-0.298 h -1.28 v 0.892 h 3.149 c -0.197,0.462 -0.295,0.793 -0.295,0.99 0,-0.197 -1.673,-0.396 -5.019,-0.594 v 0.892 l 4.33,0.297 c -0.853,1.255 -1.279,2.014 -1.279,2.279 -1.378,-0.265 -2.298,-0.495 -2.756,-0.693 -1.117,0.198 -2.067,0.296 -2.854,0.296 h -1.28 c -0.393,0 -0.59,0.231 -0.59,0.694 v 0.298 h 0.295 c 0.458,0 1.607,-0.099 3.445,-0.298 0.394,0.199 0.721,0.298 0.984,0.298 v 0.297 c -0.459,0 -0.689,0.099 -0.689,0.297 l -1.575,-0.297 c -0.196,0 -0.492,0.099 -0.885,0.297 l -1.87,-0.297 h -0.689 c -0.394,0 -0.591,0.23 -0.591,0.693 v 0.298 l 2.854,0.297 c 0.394,-0.199 0.689,-0.297 0.887,-0.297 0,0.396 -0.198,0.594 -0.591,0.594 h -0.296 c -5.25,0 -8.3,-1.585 -9.153,-4.756 m 0.985,33.194 h 1.181 v -0.298 c -0.133,-0.595 -0.952,-0.891 -2.461,-0.891 0,0.33 0.426,0.726 1.28,1.189 m 6.299,-27.744 h 0.885 c 1.443,0 3.116,-0.761 5.019,-2.279 l 0.689,0.297 h 0.591 c 2.296,-1.917 4.068,-4.756 5.315,-8.521 v -0.595 c 0,-3.634 -2.2,-5.747 -6.595,-6.341 -5.511,0 -10.006,3.27 -13.483,9.81 -0.196,1.848 -0.295,3.004 -0.295,3.467 1.443,2.775 4.068,4.162 7.874,4.162 m -8.169,-35.176 h 0.295 l 0.59,-0.297 -0.295,-1.585 c 0.197,-3.304 0.295,-5.286 0.295,-5.945 h -0.59 c -0.197,2.443 -0.295,4.226 -0.295,5.351 z m 0,16.151 c 0,-1.321 1.245,-2.146 3.739,-2.477 1.312,-1.058 2.658,-1.585 4.036,-1.585 h 0.394 c 0.524,0 1.147,0.198 1.869,0.595 -0.526,1.451 -1.279,2.179 -2.263,2.179 0,-0.395 -0.197,-0.594 -0.591,-0.594 h -0.59 c -0.46,0 -0.689,0.199 -0.689,0.594 0.394,0.264 0.721,0.397 0.984,0.397 v 0.595 c -1.904,0.396 -3.183,0.594 -3.838,0.594 -0.264,0 -1.28,-0.099 -3.051,-0.298 m 1.574,7.332 0.296,-0.693 -1.575,-1.288 c 0,0.264 -0.098,0.397 -0.295,0.397 0.131,0.792 0.655,1.32 1.574,1.584 m -1.968,-16.15 h 0.394 c 0.458,0 0.753,-1.486 0.885,-4.459 h -0.885 l -0.394,3.171 z m 2.855,57.172 0.294,-0.595 c -1.968,-0.661 -3.117,-0.99 -3.444,-0.99 v 0.99 c 1.902,0.397 2.952,0.595 3.15,0.595 m 1.869,-47.065 h 0.296 c 3.804,-1.058 5.708,-2.313 5.708,-3.766 v -0.396 l 0.591,0.396 c 0.457,-0.067 0.688,-0.297 0.688,-0.693 v -0.297 c 0,-0.728 -1.575,-1.356 -4.724,-1.883 -0.59,0 -2.067,0.726 -4.428,2.18 -2.495,0 -3.741,1.288 -3.741,3.865 1.049,0.395 2.919,0.594 5.61,0.594 m 4.724,-18.628 c 4.461,-3.238 7.086,-5.782 7.874,-7.63 4.985,-4.756 7.479,-8.753 7.479,-11.989 0.458,0 0.689,-2.213 0.689,-6.639 h 0.296 v 3.469 h 0.59 v -3.171 c 0,-0.595 0.229,-1.223 0.689,-1.882 -0.197,-0.398 -0.295,-0.827 -0.295,-1.289 h -0.689 v 2.576 h -0.295 v -1.585 c 0.393,-3.039 0.59,-5.152 0.59,-6.342 h 0.394 v 1.585 h 0.59 V 5.053 l 0.295,-3.171 C -11.121,1.685 -11.417,1.585 -11.613,1.585 V 1.287 l 0.59,-0.99 c 0,-0.332 -0.197,-1.157 -0.59,-2.477 0.196,-0.396 0.295,-0.827 0.295,-1.288 v -0.298 h -0.295 c -0.46,0 -0.689,0.627 -0.689,1.883 h -0.295 v -1.288 h -0.591 c -0.591,0 -1.116,6.01 -1.575,18.033 -0.656,3.963 -1.608,6.605 -2.854,7.927 -4.987,7.001 -8.759,11.328 -11.318,12.981 l -0.59,0.296 c -1.642,0 -3.543,-4.525 -5.709,-13.575 -1.313,-8.653 -2.231,-12.979 -2.755,-12.979 0.394,-0.86 0.59,-1.487 0.59,-1.883 l -0.59,-0.297 c -1.051,1.717 -1.575,3.699 -1.575,5.945 0.59,2.444 0.984,5.713 1.181,9.809 2.427,9.711 4.528,14.566 6.299,14.566 1.639,0 2.689,0.329 3.149,0.991 m -10.039,24.276 0.591,-0.893 V 61.73 h -0.591 c -0.393,0 -0.59,0.198 -0.59,0.594 0.064,0.396 0.261,0.595 0.59,0.595 m -0.984,-56.28 h 0.394 c 0.394,-0.068 0.59,-0.266 0.59,-0.595 0,-0.397 -0.196,-0.595 -0.59,-0.595 l -0.394,0.595 z m 0,60.144 v -0.397 c -0.196,-0.396 -0.295,-0.694 -0.295,-0.891 -0.393,0 -0.59,0.197 -0.59,0.595 z m 3.15,38.84 h 0.984 v -0.296 c 0,-0.397 -0.197,-0.595 -0.591,-0.595 h -1.968 l -2.165,-0.396 -0.295,0.693 c 0.918,0.397 2.263,0.594 4.035,0.594 m -4.331,-24.374 h 0.591 v 0.396 h -0.591 z m 0,-73.917 h 0.296 l -0.296,-1.586 h -0.688 v 0.893 c 0.064,0.461 0.295,0.693 0.688,0.693 m 0,41.12 c 0.262,-1.322 0.557,-1.981 0.886,-1.981 v 0.693 c -0.197,0.397 -0.295,0.693 -0.295,0.892 l 0.59,0.396 c 0.458,-0.728 0.689,-1.388 0.689,-1.981 v -2.478 h -0.689 v 1.883 l -0.59,-0.297 c -0.657,0 -1.083,0.825 -1.279,2.477 z m -0.393,36.364 0.689,-0.991 -0.689,-0.297 c -0.394,0 -0.591,0.199 -0.591,0.595 0.065,0.461 0.261,0.693 0.591,0.693 m -1.181,-30.122 h 0.59 c 0.591,-0.858 2.689,-1.784 6.299,-2.774 0,-0.397 1.147,-1.454 3.445,-3.17 0,-0.463 -0.197,-0.694 -0.591,-0.694 h -0.393 c -2.823,2.839 -5.546,4.424 -8.169,4.756 -0.33,0 -0.723,0.429 -1.181,1.288 z m -1.575,10.801 h 0.59 v -0.298 h -0.59 z m -0.689,32.598 h 0.984 v 0.298 h -0.984 z m -0.295,-11.791 h 0.689 c 1.245,-0.529 1.87,-0.925 1.87,-1.189 v -0.297 h -0.689 c -1.05,0 -1.673,0.297 -1.87,0.892 z m 5.708,22.493 h 0.59 c 0.394,-0.067 0.591,-0.265 0.591,-0.595 v -0.396 h -2.165 c -1.117,0 -2.888,-0.099 -5.315,-0.298 v 0.694 c 2.953,0.397 5.052,0.595 6.299,0.595 m -6.594,-41.417 1.181,-0.298 c 0.458,0.198 0.788,0.298 0.984,0.298 0,-0.199 0.098,-0.298 0.295,-0.298 0,0.198 0.099,0.298 0.296,0.298 0,-0.199 0.754,-0.926 2.263,-2.181 0.197,-0.463 0.296,-0.793 0.296,-0.99 h 0.295 c 0,0.856 0.197,1.288 0.59,1.288 v -0.298 l -0.295,-0.693 c 0.197,-0.331 0.295,-0.729 0.295,-1.19 -0.196,0 -0.295,-0.132 -0.295,-0.395 -0.393,0 -1.116,0.856 -2.165,2.576 -2.494,0.659 -3.74,1.189 -3.74,1.585 z m -0.984,7.232 v -1.189 c 0,-1.189 0.623,-2.147 1.87,-2.873 1.442,0.595 2.394,1.321 2.854,2.18 0,0.33 -0.526,1.486 -1.575,3.468 v 0.992 c -0.393,0.197 -0.722,0.295 -0.984,0.295 -1.444,-0.593 -2.165,-1.552 -2.165,-2.873 m -0.296,-13.277 h 0.591 c 0.459,-0.066 0.689,-0.265 0.689,-0.595 l -0.689,-0.297 h -0.591 z m 0.591,27.248 0.984,-1.288 -0.688,-0.297 c -0.263,0 -0.559,0.297 -0.887,0.892 0.065,0.462 0.262,0.693 0.591,0.693 m 0,39.237 h 0.689 v -0.99 h -0.689 c -0.394,0 -0.591,0.198 -0.591,0.595 z m -1.574,-69.656 v -0.298 c 0.064,-0.395 0.295,-0.593 0.688,-0.593 h 0.295 c 0,0.262 -0.329,0.56 -0.983,0.891 m 2.558,20.313 h 1.87 c 1.246,-0.793 1.87,-1.323 1.87,-1.585 0,-0.463 -0.329,-0.694 -0.984,-0.694 v -0.298 c 0.852,-1.124 1.28,-2.081 1.28,-2.873 v -0.892 c -1.182,-1.718 -2.428,-2.576 -3.74,-2.576 -1.904,0.462 -2.854,2.279 -2.854,5.45 v 0.595 c 1.378,1.915 2.23,2.873 2.558,2.873 m -2.558,29.329 h 1.87 v -0.595 h -1.87 z m 0.295,-37.554 c 0.327,0 0.753,-0.43 1.279,-1.288 -0.394,-0.197 -0.689,-0.297 -0.886,-0.297 -0.459,0.198 -0.787,0.297 -0.984,0.297 v 0.595 c 0.065,0.462 0.262,0.693 0.591,0.693 m -1.181,-7.331 v -0.298 h 1.869 v -0.297 c 0,-0.396 -0.624,-0.594 -1.869,-0.594 0.328,-2.378 1.476,-3.568 3.444,-3.568 h 0.591 c 0.328,0 0.655,0.33 0.984,0.99 v 0.992 c 0,1.189 -0.952,2.641 -2.854,4.36 h -0.296 c -0.722,-1.058 -1.345,-1.585 -1.869,-1.585 m -0.394,20.609 h 0.394 c 2.296,-0.133 3.444,-0.991 3.444,-2.576 h -0.295 z M -50.292,56.28 c 1.575,-2.643 3.15,-4.327 4.725,-5.053 v 0.296 c -2.035,3.171 -3.61,4.757 -4.725,4.757 m 1.871,40.526 0.295,-0.695 c -1.051,-1.123 -1.575,-1.948 -1.575,-2.476 0,-1.124 0.524,-2.512 1.575,-4.162 l -0.591,-0.297 c -0.657,0 -1.181,0.957 -1.575,2.874 v 0.891 c 0,0.263 0.099,0.397 0.295,0.397 l -0.295,0.595 c 0,1.187 0.623,2.144 1.871,2.873 m -2.756,-35.473 0.591,-0.892 v -0.694 h -0.296 c -0.329,0 -0.657,0.43 -0.984,1.289 z m -0.689,41.813 v -0.693 c 0.458,0 0.689,0.231 0.689,0.693 z m -0.591,-38.344 h 0.295 v -0.595 h -0.295 z m -0.689,21.203 h 0.394 c 1.442,-0.661 2.46,-1.486 3.051,-2.477 h -0.296 c -2.1,1.056 -3.149,1.684 -3.149,1.883 z m 0,6.342 c 0,-2.841 4.002,-6.111 12.007,-9.81 l 1.575,-0.297 h 0.886 c 1.378,0 2.427,0.957 3.15,2.873 h -0.296 c -0.394,-0.198 -0.723,-0.297 -0.984,-0.297 l -0.296,0.595 c 1.246,0.461 1.87,0.891 1.87,1.288 v 0.297 h -0.294 c -0.658,-0.463 -1.28,-0.694 -1.871,-0.694 v 0.991 c 1.64,0.198 2.461,0.628 2.461,1.288 0,0.398 -0.197,0.595 -0.59,0.595 -0.658,-0.397 -1.28,-0.595 -1.871,-0.595 -0.393,0 -0.59,0.198 -0.59,0.595 0.655,0.462 1.279,0.693 1.87,0.693 h 1.181 v 1.19 c -1.969,-0.595 -3.216,-0.893 -3.74,-0.893 -0.394,0 -0.591,0.199 -0.591,0.595 0.328,0.199 0.852,0.298 1.575,0.298 v 0.396 c 0,0.396 -0.23,0.595 -0.689,0.595 -0.393,-0.199 -0.689,-0.298 -0.886,-0.298 l -0.295,0.595 c 0,0.659 1.147,0.991 3.445,0.991 v 0.892 h -1.28 l -3.74,-0.297 v 0.297 c 0.131,0.659 0.951,0.991 2.461,0.991 h 1.279 v 0.297 c 0,0.396 -0.196,0.593 -0.59,0.593 -1.511,-0.396 -2.79,-0.593 -3.838,-0.593 h -0.296 c -0.394,0 -0.59,0.197 -0.59,0.593 0.327,0.264 1.574,0.496 3.739,0.695 v 0.593 c -0.196,0 -0.526,0.1 -0.984,0.298 l -0.59,-0.298 c -0.197,0 -0.526,0.1 -0.984,0.298 -1.116,-0.198 -2.035,-0.298 -2.756,-0.298 h -1.279 l -0.984,0.694 c -4.397,-1.916 -6.595,-3.831 -6.595,-5.746 m 1.28,11.692 h 0.984 c 0.394,0 0.59,-0.298 0.59,-0.893 -0.393,-0.99 -0.82,-1.52 -1.279,-1.584 h -0.591 c -0.459,0 -0.787,0.527 -0.984,1.584 z m 7.873,-5.054 h 1.28 l 0.886,-0.594 h 0.688 l -0.393,0.594 h 0.689 c 4.592,-2.378 6.889,-6.078 6.889,-11.097 -0.59,-4.427 -2.362,-6.639 -5.315,-6.639 h -0.984 v -0.297 c 0.852,0 1.477,-0.431 1.87,-1.288 v -0.298 h -0.591 c -0.853,0.659 -2.1,1.19 -3.739,1.586 v 0.297 c 0.327,0.264 0.721,0.397 1.181,0.397 v 0.296 c -6.889,2.84 -10.959,5.78 -12.204,8.819 v 1.883 c 0,3.104 3.248,5.217 9.743,6.341 m -11.022,-30.32 c 0.524,-0.925 1.279,-1.553 2.263,-1.882 v 1.189 c 0,0.33 -0.427,0.758 -1.279,1.288 h -0.296 c -0.459,-0.067 -0.688,-0.265 -0.688,-0.595 m -1.28,61.334 h 0.984 c 1.575,0 3.346,-0.332 5.314,-0.991 v -0.595 h -0.295 c -1.116,0.595 -3.117,0.893 -6.003,0.893 z m 1.575,-59.451 c 2.099,0 3.149,-1.486 3.149,-4.458 -0.197,-0.398 -0.295,-0.694 -0.295,-0.893 -0.787,0 -1.838,0.529 -3.149,1.586 0,-0.265 -0.099,-0.397 -0.296,-0.397 0,0.529 -0.427,1.288 -1.279,2.279 0,0.132 0.623,0.759 1.87,1.883 m -2.165,-6.044 h 1.279 l 2.46,-1.883 v -0.297 c -1.116,0 -2.361,0.726 -3.739,2.18 m -0.591,35.472 c 0.197,-0.396 0.295,-0.827 0.295,-1.288 h 0.591 v 1.585 h -0.295 z m -0.689,-26.555 h 0.984 v -0.99 h -0.295 c -0.46,0 -0.689,0.198 -0.689,0.594 z m 0.984,28.141 h 0.886 c 0.655,-0.265 0.984,-0.926 0.984,-1.982 v -0.892 c 0,-0.332 -0.329,-0.661 -0.984,-0.991 h -0.886 c -0.853,0.396 -1.279,1.156 -1.279,2.279 v 0.297 c 0,0.331 0.426,0.758 1.279,1.289 m -1.574,3.765 v -0.298 c 0.393,0 0.918,-0.232 1.574,-0.693 h 0.296 v 0.396 c -0.329,0 -0.854,0.198 -1.575,0.595 z m 0.59,24.374 0.394,-0.693 -0.689,-0.297 -0.295,0.595 z M -59.05,90.166 h 0.59 c 0.787,-1.058 1.41,-1.585 1.87,-1.585 0.458,-0.066 0.689,-0.298 0.689,-0.693 L -56.59,87.59 h -0.886 c -1.05,0.528 -1.574,1.389 -1.574,2.576 m 0,23.683 c 0.524,0 1.245,1.253 2.165,3.764 -1.445,-1.783 -2.165,-3.04 -2.165,-3.764 M -59.346,67.08 h 0.295 v -0.694 h -0.295 z m 3.445,43.895 c 0,-0.728 -0.625,-1.256 -1.87,-1.586 v 0.396 l 0.295,0.595 h -0.295 c -0.591,0 -1.247,-0.629 -1.969,-1.883 1.049,-2.312 2.427,-3.468 4.134,-3.468 h 0.591 c 1.508,1.123 2.263,3.005 2.263,5.649 h -0.394 l -1.181,-0.893 c -0.132,0.397 -0.656,0.793 -1.574,1.19 m -3.149,9.809 0.295,-0.595 -0.591,-0.297 -0.394,0.594 z m -0.985,-52.812 h 0.689 v -0.298 h -0.689 z m -0.59,-1.882 h 1.575 l 0.59,-0.298 c 0,0.198 0.098,0.298 0.295,0.298 l 0.394,-0.595 c -0.591,-0.067 -1.019,-0.595 -1.279,-1.586 4.133,-2.512 7.15,-4.524 9.053,-6.045 0.394,0.199 0.82,0.298 1.28,0.298 -1.05,1.453 -1.575,3.171 -1.575,5.152 v 0.298 c 0,0.461 0.722,0.758 2.166,0.892 v 0.298 c -0.788,0 -1.181,0.329 -1.181,0.99 h 0.295 c 3.543,-1.189 5.314,-3.205 5.314,-6.045 V 58.56 c 0,-0.332 -0.427,-0.761 -1.279,-1.289 h -0.295 l -1.575,0.297 c 1.639,-4.03 3.937,-6.045 6.889,-6.045 l 0.394,-0.594 -0.689,-0.991 h 0.295 l 1.28,0.991 7.873,-4.458 c -0.393,-0.067 -0.59,-0.266 -0.59,-0.595 l 0.59,-0.297 h 1.575 c 0.394,0 0.59,0.197 0.59,0.595 -2.1,1.387 -3.149,2.245 -3.149,2.576 0.262,0 0.394,0.099 0.394,0.296 1.181,-0.331 2.623,-1.485 4.331,-3.467 1.639,0 3.41,-1.256 5.314,-3.766 l -0.591,-0.396 h -0.295 c -1.444,2.113 -2.691,3.171 -3.74,3.171 h -0.394 v -0.297 c 0.918,-2.049 3.116,-3.635 6.594,-4.757 0,-0.661 2.001,-1.719 6.004,-3.17 v 0.694 c -0.591,0.792 -0.886,1.42 -0.886,1.882 l 0.591,0.296 c 1.18,-2.114 1.902,-3.17 2.165,-3.17 h 0.984 l 0.295,2.18 c 0,0.198 -0.098,0.858 -0.295,1.983 0.13,1.847 0.426,2.773 0.886,2.773 h 0.393 l -0.689,-7.232 c 0.262,0 0.591,-0.099 0.984,-0.298 v 2.477 l 0.296,1.585 h 0.591 v -4.359 c 0,-0.463 -0.197,-0.694 -0.591,-0.694 -0.394,0.199 -0.722,0.297 -0.984,0.297 v -0.594 l 0.393,-2.18 -0.689,-0.397 c -0.132,0.462 -0.329,1.651 -0.59,3.568 h -1.279 v -0.397 c 0.655,0 0.984,-0.198 0.984,-0.594 v -0.595 c 0,-0.463 -0.329,-0.693 -0.984,-0.693 1.18,-2.115 2.558,-3.171 4.133,-3.171 0,0.33 0.296,0.659 0.886,0.991 0.393,-0.067 0.59,-0.297 0.59,-0.694 l -1.18,-1.188 h -0.296 c -2.1,0 -4.101,1.783 -6.003,5.35 -4.2,1.518 -7.776,3.401 -10.728,5.647 -0.984,0 -2.329,1.487 -4.035,4.46 -1.247,0.396 -2.396,0.595 -3.445,0.595 v -0.298 h -0.295 c -1.444,1.981 -5.019,3.896 -10.728,5.746 0,0.199 -0.427,0.298 -1.279,0.298 0,-0.198 -0.098,-0.298 -0.295,-0.298 -1.313,0.132 -3.282,1.916 -5.905,5.352 -2.362,0.792 -3.641,1.419 -3.838,1.882 v 0.296 c 1.377,-0.395 2.229,-0.593 2.558,-0.593 0,0.528 -1.279,1.253 -3.838,2.179 v -0.298 c 0,-0.197 -0.099,-0.297 -0.295,-0.297 -0.787,0.331 -1.181,0.628 -1.181,0.892 0.197,0.463 0.295,0.794 0.295,0.991 -3.019,1.519 -4.593,2.776 -4.724,3.766 0.197,0 0.295,0.099 0.295,0.298 l 0.591,-0.298 c 0.852,0.197 1.607,0.298 2.264,0.298 v 0.395 c -1.051,0 -1.575,0.199 -1.575,0.595 z M -62.2,31.013 c -0.197,-3.436 -0.295,-5.318 -0.295,-5.648 v -5.053 h 0.295 c 0,2.641 0.098,5.68 0.295,9.116 v 1.585 z m 2.46,25.664 V 56.28 c -1.64,-6.079 -2.691,-9.116 -3.149,-9.116 h -0.295 c 1.575,6.341 2.722,9.513 3.444,9.513 m -3.149,12.285 2.264,-1.288 0.295,-0.594 h -0.591 c -1.706,0.397 -2.558,0.825 -2.558,1.288 0.064,0.397 0.261,0.594 0.59,0.594 m -0.59,61.632 h 0.59 c 0.458,-0.068 0.689,-0.265 0.689,-0.595 l -0.689,-0.298 h -0.59 z m 0,-74.908 h 0.59 c -0.197,-3.702 -0.295,-6.012 -0.295,-6.936 h -0.59 v 3.765 z m 5.314,0.296 0.394,-0.594 c -0.46,-0.859 -0.689,-1.619 -0.689,-2.279 1.639,1.717 2.886,2.577 3.74,2.577 3.543,-2.248 6.921,-5.616 10.137,-10.107 3.346,-1.454 5.019,-4.196 5.019,-8.224 l 0.886,-8.918 -1.575,-18.627 c 0.459,-0.067 0.689,-0.266 0.689,-0.595 l -1.279,-0.991 -0.689,0.297 c 0,-0.331 -0.723,-0.86 -2.166,-1.585 0,-0.595 -0.427,-1.09 -1.279,-1.487 v 0.297 c 2.296,5.218 3.445,9.215 3.445,11.99 0,1.519 0.13,6.803 0.393,15.853 0,3.104 -2.1,6.87 -6.299,11.297 0,0.724 -2.625,3.698 -7.873,8.917 h -0.295 c -1.247,-1.255 -2.625,-5.913 -4.134,-13.972 v -7.53 c -0.393,-10.57 -1.018,-15.853 -1.869,-15.853 h -0.296 l -0.984,0.694 v -0.397 c 0.262,-0.395 0.394,-0.693 0.394,-0.891 h -0.394 c 0.655,-2.049 0.984,-3.436 0.984,-4.163 V 11.395 H -62.2 c -0.46,0 -0.984,1.783 -1.574,5.35 0.983,21.534 2.131,32.301 3.444,32.301 0.852,4.624 1.575,6.936 2.165,6.936 m -5.609,6.342 h 0.885 V 61.73 c 0,-1.983 0.426,-3.468 1.28,-4.459 L -62.2,56.974 c -1.05,1.452 -1.574,3.236 -1.574,5.35 m 0,22.789 h 0.59 v -0.297 h -0.59 z m 0,49.642 h 0.295 c 4.264,0 8.464,-0.959 12.597,-2.873 v -0.595 c -1.64,0.924 -5.841,1.849 -12.597,2.774 h -0.295 z m -0.591,-58.162 h 0.591 c 2.361,-1.72 3.705,-2.908 4.034,-3.568 l -0.59,-0.297 c -2.691,2.18 -4.035,3.335 -4.035,3.468 z m 0.591,6.242 h 2.165 v -0.298 c 0,-0.395 -0.197,-0.595 -0.591,-0.595 h -1.574 c -0.394,0 -0.591,0.2 -0.591,0.595 z m -1.575,-19.223 h 0.59 c 0,-0.463 0.426,-2.378 1.28,-5.748 l -0.591,-0.296 c -0.853,2.179 -1.279,4.194 -1.279,6.044 m 0.295,-5.748 c 0.197,-0.395 0.295,-0.693 0.295,-0.89 0,-0.463 -0.098,-0.892 -0.295,-1.288 0.458,-2.445 0.689,-5.385 0.689,-8.819 v -2.576 h -0.689 v 2.18 c 0,2.575 -0.196,6.274 -0.591,11.097 z m -0.591,21.8 h 0.591 c 0,-0.332 0.229,-0.727 0.689,-1.189 v -0.694 h -0.394 c -0.263,0 -0.558,0.33 -0.886,0.99 z m 0.591,19.321 -1.575,-1.882 c 1.836,-2.314 3.214,-3.468 4.134,-3.468 h 0.59 c 0.788,0 1.41,0.298 1.87,0.892 -1.64,2.244 -2.46,3.731 -2.46,4.458 l -0.689,-0.297 z m -1.575,0.991 h 2.264 c 0.984,-0.067 1.476,-0.297 1.476,-0.694 l 0.689,0.298 h 0.295 c 0,-1.124 0.95,-2.576 2.855,-4.359 V 94.23 c -0.527,-0.926 -1.28,-1.554 -2.264,-1.883 -2.428,0 -4.298,1.154 -5.61,3.467 -0.394,0 -0.59,0.232 -0.59,0.695 v 0.89 c 0.59,0.793 0.885,1.651 0.885,2.577 m -1.279,-41.121 h 0.688 c 0.853,-4.556 1.28,-7.298 1.28,-8.223 h -0.689 z m 0.984,31.311 c 0.394,-0.066 0.591,-0.297 0.591,-0.693 v -0.297 h -0.591 l -0.984,0.693 v -0.396 c 0.59,-1.058 1.442,-1.585 2.559,-1.585 0.327,0 0.655,0.33 0.984,0.99 -0.329,0.858 -0.854,1.487 -1.575,1.883 h -0.393 c -0.395,-0.067 -0.591,-0.264 -0.591,-0.595 m -1.28,44.589 h 1.279 v -0.694 h -1.279 z m -0.885,-68.963 h 0.295 c 1.312,-0.396 2.131,-0.595 2.461,-0.595 l -0.296,-0.693 0.984,-3.766 h -0.984 c 0,1.519 -0.821,2.874 -2.46,4.064 z m 3.444,18.628 h 1.28 v -0.297 c -0.854,-2.313 -1.378,-3.469 -1.575,-3.469 h -0.393 c 0,0.529 0.229,1.488 0.688,2.874 h -0.295 c -1.378,0 -2.231,-0.959 -2.559,-2.874 v -1.288 c 0,-2.773 2.624,-5.417 7.874,-7.927 h 0.885 c 3.411,0 5.413,1.19 6.004,3.568 h -0.295 c -0.394,0 -0.92,-0.233 -1.575,-0.694 l -0.295,0.694 2.46,1.586 v 0.297 c -1.377,-0.463 -2.33,-0.694 -2.854,-0.694 h -0.295 v 0.397 c 0,0.395 0.425,0.595 1.279,0.595 l -0.295,0.593 v 0.694 h 0.591 c 0.457,-0.067 0.688,-0.297 0.688,-0.694 -0.263,0 -0.393,-0.099 -0.393,-0.298 h 0.393 c 0.394,0.199 0.689,0.298 0.886,0.298 -0.132,0.858 -0.329,1.288 -0.59,1.288 l -3.15,-0.991 h -0.295 v 0.397 c 0,0.462 1.147,0.99 3.445,1.585 v 0.297 c -0.263,0 -0.591,0.1 -0.984,0.297 -2.495,-0.859 -4.069,-1.288 -4.725,-1.288 h -0.295 v 0.991 c 2.493,0.263 3.74,0.694 3.74,1.289 h -0.59 c -0.263,0 -1.838,-0.233 -4.724,-0.694 l -0.296,0.694 c 0.459,0.198 1.41,0.395 2.855,0.594 v 0.297 c -2.429,0.727 -3.708,1.354 -3.839,1.883 h 0.689 c 6.035,-2.048 9.054,-3.634 9.054,-4.756 0.131,-1.256 0.459,-1.883 0.984,-1.883 -0.393,-4.823 -2.592,-7.233 -6.593,-7.233 h -1.87 c -2.363,0 -5.184,2.41 -8.464,7.233 l -0.394,1.883 c 0,2.774 1.279,4.359 3.838,4.756 m -3.838,7.332 h 0.394 c 0.196,0 0.492,-0.099 0.885,-0.297 l 1.871,0.297 c 1.311,0 2.46,-1.058 3.444,-3.171 l -2.46,-1.882 h -0.591 c -2.362,1.915 -3.543,3.599 -3.543,5.053 m -0.295,-17.736 h 0.984 c 0,-1.585 1.673,-2.84 5.02,-3.766 v -0.693 h -0.591 c -3.609,0.991 -5.413,2.477 -5.413,4.459 m -3.15,-11.692 c 3.347,-7.729 5.02,-12.881 5.02,-15.457 h 0.394 v 0.297 c -1.314,8.719 -3.118,13.773 -5.414,15.16 m 0.69,22.096 0.295,-0.595 -0.591,-0.297 -0.394,0.595 z m -0.69,22.789 c 1.378,-1.917 2.855,-2.873 4.429,-2.873 0.394,0 0.722,0.66 0.985,1.982 l -3.15,1.882 c -1.51,-0.332 -2.264,-0.661 -2.264,-0.991 m -1.574,-28.14 c 0.59,0 2.165,-0.826 4.724,-2.476 v -0.695 h -1.28 c -1.378,1.453 -2.526,2.18 -3.444,2.18 z m 0,19.916 h 0.984 c 0.197,-1.124 0.295,-1.751 0.295,-1.882 l -0.59,-0.297 -0.295,0.593 0.295,0.694 h -0.689 z m 3.838,10.107 c 0.852,0 2,-0.728 3.444,-2.181 h 0.887 c -0.788,-2.312 -1.313,-3.467 -1.575,-3.467 h -0.296 c -2.494,0 -4.593,1.353 -6.298,4.062 1.902,1.056 3.181,1.586 3.838,1.586 m -0.984,1.883 v -0.297 c 0,-0.595 -1.346,-0.893 -4.036,-0.893 v 0.893 h 0.887 z m -4.429,20.907 h 4.429 c 5.445,0 8.169,-0.331 8.169,-0.991 v -0.297 l -3.15,0.297 h -10.038 v 0.396 c 0.064,0.396 0.261,0.595 0.59,0.595 m -1.575,-67.973 h 0.689 v -0.297 h -0.689 z m 0.985,8.522 0.295,-0.595 v -0.397 c 0,-0.198 -0.099,-0.296 -0.295,-0.296 l 0.295,-0.595 v -0.595 c -0.197,0 -0.492,-0.133 -0.886,-0.396 l -0.394,0.693 v 0.298 c 0.131,1.254 0.459,1.883 0.985,1.883 m -1.28,13.871 1.87,-2.477 c 1.509,0.529 2.264,1.586 2.264,3.171 h -0.295 c -1.117,0 -2.396,-0.232 -3.839,-0.694 m 0,17.737 c 2.756,-0.728 4.134,-2.082 4.134,-4.063 h -0.295 c -1.838,2.113 -3.118,3.17 -3.839,3.17 z m 0.295,-7.233 v -1.288 c -0.393,0 -0.59,0.197 -0.59,0.593 0.065,0.462 0.261,0.695 0.59,0.695 m 0.394,-29.428 v -0.595 c -0.263,-0.463 -0.394,-0.793 -0.394,-0.991 h 0.394 c -0.263,-0.331 -0.394,-0.859 -0.394,-1.585 h -0.59 l -0.295,1.585 z m -1.575,-29.726 h 0.295 v 3.467 h -0.295 z m 0,83.429 h 0.295 v -0.595 h -0.295 z m 5.315,-56.874 h 0.295 c 1.705,0 3.608,-4.098 5.709,-12.287 1.245,-8.918 1.869,-14.302 1.869,-16.15 h 0.591 v 4.459 l 0.295,0.593 c -1.05,0 -1.574,2.939 -1.574,8.819 h 0.688 v -0.297 c 0,-2.378 0.197,-4.79 0.591,-7.234 h 0.295 c 0,0.595 0.229,0.892 0.689,0.892 v 4.46 h 0.591 c -0.197,-7.796 -0.625,-11.692 -1.28,-11.692 v -1.586 l 0.394,-0.595 c -0.46,-0.067 -0.689,-0.297 -0.689,-0.693 0.852,-9.051 1.28,-16.746 1.28,-23.086 -0.394,-0.199 -0.724,-0.298 -0.985,-0.298 l -1.181,0.593 0.295,1.586 c 0,12.154 -1.673,24.904 -5.019,38.247 -2.232,6.671 -3.708,10.171 -4.429,10.503 -0.393,-0.926 -0.821,-3.467 -1.279,-7.629 0.197,-0.396 0.295,-0.694 0.295,-0.892 -0.132,-0.859 -0.329,-1.288 -0.59,-1.288 0.196,-3.502 0.295,-6.143 0.295,-7.927 v -8.818 c 0,-0.463 0.229,-1.521 0.688,-3.171 l -0.688,-0.297 c 0.458,-0.729 0.688,-1.388 0.688,-1.982 h -0.393 c -1.247,0.793 -2.396,4.063 -3.444,9.809 -0.198,2.708 -0.296,4.293 -0.296,4.756 l 0.984,1.586 c 0.328,12.881 1.673,19.321 4.036,19.321 0.393,0.198 0.819,0.298 1.279,0.298 m -1.279,48.056 h 1.869 v -0.595 c -2.231,-0.198 -4.527,-0.529 -6.889,-0.99 v 0.297 c 0,0.726 1.673,1.154 5.02,1.288 m -1.87,-23.98 c 1.705,0 3.083,-0.331 4.133,-0.99 -0.591,-2.973 -1.542,-4.458 -2.854,-4.458 l 0.591,-0.893 c 0,-0.462 -0.197,-0.693 -0.591,-0.693 -1.904,2.973 -3.478,4.459 -4.724,4.459 v 0.594 c 0.721,0 1.87,0.66 3.445,1.981 m -4.036,-18.726 h 0.296 c 0.851,0 1.378,-2.611 1.574,-7.827 v -2.28 h -0.688 v 1.586 c 0,0.793 -0.395,3.434 -1.182,7.926 z m 0.296,28.834 h 0.295 c 0.196,-1.124 0.295,-1.751 0.295,-1.882 h -0.295 c -0.46,0 -0.787,0.527 -0.984,1.584 z m 0,6.638 c 0.851,-0.331 1.279,-0.661 1.279,-0.99 l -0.689,-0.298 h -0.59 c -0.46,0 -0.689,0.198 -0.689,0.595 0.064,0.461 0.295,0.693 0.689,0.693 m 9.349,28.141 h 0.689 c 1.903,0 3.674,-0.233 5.315,-0.693 v -0.595 l -1.575,0.297 h -5.905 c -2.691,0 -5.413,-0.199 -8.169,-0.595 l -0.393,0.595 c 2.099,0.66 5.445,0.991 10.038,0.991 M -81.982,99.282 h 0.295 l 0.295,-1.189 -0.59,-0.396 -0.689,0.991 c 0.065,0.396 0.296,0.594 0.689,0.594 m -1.575,-10.701 h 0.296 l 2.165,-0.298 V 87.59 h -1.87 c -0.394,0 -0.591,0.231 -0.591,0.693 z m 0.886,24.673 c 0.655,0 0.984,-0.332 0.984,-0.991 2.296,0.659 4.067,0.991 5.315,0.991 v -0.693 c -3.019,-0.595 -4.889,-0.893 -5.61,-0.893 v 0.595 l -0.689,-0.297 h -1.181 v 0.297 c 0,0.329 0.394,0.659 1.181,0.991 m -0.59,0.892 h 0.59 v -0.297 c 0,-0.398 -0.197,-0.595 -0.59,-0.595 h -0.591 v 0.297 c 0.064,0.396 0.262,0.595 0.591,0.595 m 0.295,-13.873 h 0.295 v -0.297 c -0.393,-0.529 -0.59,-1.157 -0.59,-1.883 h -0.985 c 0,1.123 0.426,1.849 1.28,2.18 m -2.756,34.482 h 1.477 v -0.694 h -1.477 z m 0.295,-21.501 0.296,-0.693 c -1.051,-0.398 -1.904,-0.595 -2.559,-0.595 l -0.295,0.595 c 1.312,0.46 2.165,0.693 2.558,0.693 m 1.575,-6.639 h -1.575 c 0,-0.793 -0.23,-1.422 -0.689,-1.883 h 0.689 v -0.693 l -1.869,-2.477 -0.394,0.594 v 0.297 l 0.689,0.991 c -0.46,0 -0.689,0.198 -0.689,0.595 l 0.984,1.584 v 0.298 c -1.247,-0.661 -1.87,-1.817 -1.87,-3.468 v -0.297 c 0.393,-1.52 0.591,-2.378 0.591,-2.576 0.261,0 1.114,1.19 2.558,3.566 h 0.591 v -0.395 c -1.444,-2.181 -2.165,-3.634 -2.165,-4.36 l 0.59,-0.298 c 0,0.991 0.623,2.245 1.87,3.765 h 0.295 v -0.693 c -0.722,-0.99 -1.214,-2.247 -1.476,-3.766 4.264,-2.114 7.807,-3.368 10.629,-3.764 1.705,0.329 2.559,1.684 2.559,4.062 v 1.288 c 0,3.171 -2.527,5.614 -7.578,7.333 l -0.591,-0.397 c -1.706,0.527 -2.558,0.858 -2.558,0.99 z M -89.56,95.814 h 0.689 c 2.689,-1.85 4.035,-3.732 4.035,-5.648 h -0.295 c -0.985,1.916 -2.461,3.699 -4.429,5.352 z m 7.873,11.99 c 5.379,-2.246 8.43,-4.031 9.153,-5.351 0.591,-1.719 0.886,-3.304 0.886,-4.756 0,-3.369 -1.346,-5.053 -4.036,-5.053 -9.251,1.848 -13.876,5.35 -13.876,10.502 0,2.578 2.099,4.029 6.299,4.36 z M -93.595,66.783 h 0.591 V 66.09 h -0.591 z m 1.18,35.075 c 0.459,-0.066 0.69,-0.296 0.69,-0.693 -0.854,-0.395 -1.575,-0.595 -2.166,-0.595 v 0.992 z m -1.869,-3.17 c 0.524,-0.86 1.28,-1.289 2.263,-1.289 v -0.89 c -1.116,0 -2.066,0.626 -2.854,1.882 z m 1.28,-8.224 h 0.294 v -0.298 c -0.787,-0.99 -1.313,-2.278 -1.574,-3.864 h -0.296 l -0.59,0.397 c 0.721,2.51 1.442,3.765 2.166,3.765 m 1.279,34.184 h 0.295 v -0.991 c 0,-1.124 -1.247,-3.007 -3.74,-5.648 v 0.595 c 1.639,4.028 2.788,6.044 3.445,6.044 m -2.166,-20.907 v -0.595 c -2.165,-0.858 -3.444,-1.288 -3.838,-1.288 v 0.298 c 0.918,1.056 2.198,1.585 3.838,1.585 m -5.412,-1.585 c 0,-0.859 0.425,-1.288 1.279,-1.288 v -0.595 h -0.591 c -0.329,0 -0.755,0.429 -1.279,1.289 0.065,0.395 0.262,0.594 0.591,0.594 m 2.853,2.873 h 1.28 v -0.693 c -1.641,0 -3.117,-0.397 -4.429,-1.19 -0.393,0 -0.59,0.2 -0.59,0.595 1.442,0.858 2.689,1.288 3.739,1.288 m -0.59,1.882 h 1.575 v -0.296 c 0,-0.265 -1.575,-0.793 -4.724,-1.586 l -0.295,0.594 c 1.048,0.858 2.197,1.288 3.444,1.288 m 4.33,3.469 0.295,-0.595 c -0.656,-0.463 -1.279,-0.693 -1.869,-0.693 h -3.15 l -3.05,-0.297 v 0.594 c 2.492,0.462 5.084,0.793 7.774,0.991 m -2.165,-1.585 0.295,-0.595 c -3.215,-0.859 -5.314,-1.289 -6.298,-1.289 v 0.298 c 0,0.397 2,0.925 6.003,1.586 m -3.444,-13.574 c -1.641,-2.314 -2.593,-3.469 -2.855,-3.469 l 0.296,-0.693 -0.886,-1.586 v -0.297 h 0.59 c 0,0.396 1.379,2.311 4.134,5.747 -0.525,0 -0.952,0.098 -1.279,0.298 m -3.74,10.7 h 0.295 c 0.393,0 0.82,-0.728 1.28,-2.18 h -0.394 c -0.33,0 -0.723,0.726 -1.181,2.18 m -2.559,-8.818 c -1.641,-1.983 -2.461,-3.468 -2.461,-4.459 v -0.297 c 0.065,-0.397 0.262,-0.595 0.591,-0.595 h 0.295 c 0.262,1.056 1.312,2.642 3.15,4.757 -0.395,0 -0.92,0.197 -1.575,0.594 m -2.165,9.215 0.295,-0.695 v -1.584 c 0,-0.397 -0.197,-0.595 -0.591,-0.595 0,0.528 -0.132,1.353 -0.393,2.477 z m 3.444,18.33 c 0.394,-0.066 0.591,-0.296 0.591,-0.693 v -0.298 c 0,-0.331 -0.428,-0.661 -1.279,-0.99 l -0.296,0.693 c 0.197,0 0.296,0.099 0.296,0.297 h -0.591 c -0.263,0 -1.412,-0.43 -3.445,-1.288 v 0.298 c 0,1.056 1.575,1.716 4.724,1.981 m -5.708,-31.707 0.689,-0.297 3.15,4.755 c 0,0.462 -0.231,0.694 -0.689,0.694 -2.101,-1.783 -3.15,-3.501 -3.15,-5.152 m 1.279,6.639 c -2.296,-2.973 -3.444,-4.855 -3.444,-5.647 l 1.279,-0.298 c 1.575,2.839 2.722,4.425 3.445,4.756 -0.132,0.594 -0.558,0.99 -1.28,1.189 m -2.854,0.396 V 99.58 c 0,-0.396 -0.196,-0.595 -0.59,-0.595 v 0.297 c 0.065,0.461 0.261,0.694 0.59,0.694 m 15.452,29.725 0.295,-0.693 c -6.037,-1.653 -11.482,-3.634 -16.337,-5.945 v 0.297 c 1.181,1.586 6.528,3.699 16.042,6.341 m -14.468,-24.374 h 0.296 c -0.066,-0.53 -1.018,-1.685 -2.854,-3.469 v 0.595 c 1.312,1.849 2.165,2.807 2.558,2.874 m -3.149,-3.765 h 0.295 v -0.693 h -0.295 z m -0.59,-0.992 h 0.295 v -0.595 h -0.295 z m -0.984,14.567 h 0.295 v -0.694 h -0.295 z m 21.357,17.042 c 0,-0.331 -3.347,-1.388 -10.039,-3.171 -3.282,-1.255 -7.152,-3.039 -11.614,-5.351 v 0.594 c 2.493,1.916 8.464,4.36 17.912,7.333 1.836,0.396 3.084,0.595 3.741,0.595 m -21.948,-18.033 h 0.295 v -0.595 h -0.295 z m -1.279,-12.584 0.294,-0.694 c 0,-0.331 -0.427,-0.629 -1.278,-0.892 0.261,-0.396 0.393,-0.728 0.393,-0.991 h 0.591 c 0,0.66 1.673,3.104 5.019,7.333 v 0.297 h -0.295 c -2.101,-1.719 -3.676,-3.403 -4.724,-5.053 m -0.984,5.053 c 0.261,-0.397 0.393,-0.728 0.393,-0.992 -0.329,0 -0.984,-0.627 -1.968,-1.882 v -0.297 c 0.064,-0.463 0.295,-0.693 0.688,-0.693 0.525,1.519 1.05,2.278 1.576,2.278 v -0.693 l -0.985,-1.585 v -0.298 h 0.296 v 0.693 c 0.458,-0.066 0.689,-0.296 0.689,-0.693 -0.854,-0.395 -1.28,-1.024 -1.28,-1.883 4.264,5.351 6.56,8.522 6.889,9.513 l -0.886,0.595 c -0.263,0 -1.739,-1.784 -4.428,-5.351 v 0.594 c 3.149,4.095 4.724,6.44 4.724,7.035 v 1.486 c -1.772,-1.651 -3.676,-4.26 -5.708,-7.827 m -3.15,1.585 c 0.261,-0.396 0.394,-0.826 0.394,-1.289 h 0.59 c 0.394,1.521 1.772,3.633 4.134,6.343 v -0.298 l -2.855,-4.756 h 0.296 c 0,0.198 0.098,0.297 0.295,0.297 V 108.2 l -1.574,-2.279 0.688,-0.298 c 1.706,3.236 4.002,6.506 6.89,9.81 -0.264,1.056 -0.591,1.586 -0.984,1.586 -0.394,-0.992 -0.822,-1.52 -1.28,-1.586 v 0.297 l 0.984,1.585 v 1.289 h -0.295 c -3.74,-3.7 -6.168,-7.168 -7.283,-10.404 m 6.299,11.692 c -2.232,-2.18 -4.2,-4.724 -5.905,-7.629 l 0.295,-0.595 c -0.854,-0.926 -1.279,-1.454 -1.279,-1.585 v -0.694 c 2.82,4.162 5.346,7.563 7.578,10.206 z m -7.184,-6.341 0.295,-0.595 -0.591,-0.99 v -0.991 h 0.296 c 0,0.792 2.197,3.963 6.593,9.511 v 0.298 c -1.903,-1.125 -4.101,-3.534 -6.593,-7.233 m -0.591,1.288 v -1.288 c 3.346,4.161 5.019,6.571 5.019,7.233 h -0.393 c -3.085,-2.709 -4.626,-4.691 -4.626,-5.945 m 55.901,23.681 h 1.181 c 8.464,0 14.96,-2.214 19.487,-6.638 1.049,0 5.674,-4.757 13.877,-14.269 0.393,-0.727 0.688,-1.783 0.885,-3.171 0,-0.925 -0.624,-3.435 -1.869,-7.531 1.442,-0.925 3.641,-3.565 6.594,-7.926 2.558,-0.793 4.953,-4.691 7.184,-11.692 1.246,-3.369 4.1,-6.936 8.562,-10.7 1.246,-2.115 1.871,-5.286 1.871,-9.513 0.983,-2.511 3.083,-6.508 6.298,-11.989 0.984,-2.512 1.476,-4.954 1.476,-7.332 0,-1.19 -0.723,-5.385 -2.165,-12.584 l 0.295,-1.982 c 0,-1.057 -0.098,-3.138 -0.295,-6.242 0.852,-5.945 1.575,-9.975 2.165,-12.089 -0.983,-0.463 -1.476,-0.99 -1.476,-1.585 0,-0.332 0.197,-1.486 0.59,-3.467 h -0.59 v 0.693 h -0.394 v -0.398 c 0.459,-0.858 0.69,-1.485 0.69,-1.881 l -0.69,-0.297 c -1.246,6.341 -2.395,9.511 -3.444,9.511 -0.394,-2.907 -0.591,-5.45 -0.591,-7.628 0,-0.729 0.099,-2.512 0.296,-5.352 -0.197,-1.52 -0.296,-2.773 -0.296,-3.765 0.394,-1.916 0.591,-3.205 0.591,-3.864 -0.657,-0.396 -1.28,-0.595 -1.87,-0.595 -0.394,0.529 -0.59,0.957 -0.59,1.288 V 8.918 H -8.464 V -2.478 h -0.689 l -0.295,1.586 c 0,13.674 0.95,20.511 2.854,20.511 h 0.591 c 0,-0.199 0.098,-0.298 0.295,-0.298 v 0.298 c -0.854,1.651 -1.28,2.707 -1.28,3.17 v 0.595 c 1.903,-1.256 2.855,-2.611 2.855,-4.063 v -0.297 h 0.295 v 0.595 c -0.787,3.037 -1.314,5.68 -1.575,7.927 0.655,4.689 0.984,7.859 0.984,9.512 l -0.591,0.891 c 1.443,1.651 2.166,4.491 2.166,8.522 v 0.396 c 0,0.197 0.098,0.297 0.295,0.297 l -0.295,0.595 v 0.991 c 0,2.707 -1.05,5.977 -3.149,9.81 h -0.296 v -0.992 h -0.295 c -0.46,0 -0.787,1.056 -0.984,3.17 -1.116,0 -2.166,2.114 -3.15,6.342 0.197,0.329 0.296,0.759 0.296,1.288 -1.444,1.056 -2.165,2.213 -2.165,3.468 -0.657,0 -0.985,0.198 -0.985,0.595 0.065,0.396 0.295,0.594 0.689,0.594 h 0.296 c 0.524,0 0.95,-0.827 1.279,-2.477 h 0.59 c 0,2.906 -1.05,5.118 -3.149,6.64 h -0.295 l 0.295,-0.595 v -0.397 h -0.886 c -0.722,1.321 -2.1,3.235 -4.133,5.746 -1.837,4.36 -3.184,6.871 -4.035,7.531 v 0.991 h 0.59 c 0,2.641 -2.199,5.383 -6.594,8.224 -2.428,4.162 -4.298,6.572 -5.609,7.233 v 0.397 h -0.394 v -0.397 c 0.655,-1.057 0.984,-2.114 0.984,-3.17 -0.46,0.132 -0.984,1.09 -1.574,2.872 -0.133,0 -0.428,0.331 -0.887,0.992 -2.888,0 -6.037,-0.332 -9.448,-0.992 v 0.992 c 5.446,0.594 8.89,0.891 10.335,0.891 0.196,-0.396 0.294,-0.693 0.294,-0.891 0.655,0 1.411,1.982 2.264,5.946 -0.919,0.792 -1.673,3.135 -2.264,7.034 h -0.885 v -0.397 c 0.591,-2.576 0.885,-4.359 0.885,-5.349 v -0.298 h -0.59 v 0.298 c -1.116,6.142 -2.165,9.214 -3.15,9.214 v -0.396 c 0.656,-2.644 1.607,-6.111 2.855,-10.404 l -0.689,-0.297 c -2.495,8.917 -4.069,13.441 -4.724,13.573 v -0.297 c 2.098,-5.88 3.149,-9.875 3.149,-11.988 h -0.591 c -1.837,9.247 -3.609,13.871 -5.314,13.871 v 0.693 l 0.295,0.595 c -1.05,0.858 -1.673,1.288 -1.87,1.288 h -0.688 v -0.395 h 0.984 c 0,-0.397 -0.198,-0.595 -0.591,-0.595 h -0.393 c -0.527,0.395 -4.922,1.352 -13.189,2.873 v 0.893 h 0.69 c 2.558,-0.794 5.904,-1.521 10.038,-2.181 l -0.295,0.595 0.59,0.396 c -0.984,2.442 -7.775,4.128 -20.372,5.053 -4.134,0 -7.283,-0.629 -9.448,-1.882 h 0.59 c 2.23,0.396 3.706,0.594 4.429,0.594 h 0.59 l 3.15,-0.297 v -0.694 h -0.295 l -3.74,0.397 c -1.378,-0.463 -2.33,-0.693 -2.854,-0.693 h -2.854 c -4.921,1.451 -7.645,2.178 -8.169,2.178 -0.591,0 -2.264,-0.395 -5.02,-1.188 v -0.297 h 0.295 c 2.23,0.594 4.134,0.891 5.709,0.891 l 0.295,-0.594 c -9.054,-1.256 -15.845,-3.27 -20.372,-6.044 -6.431,-2.709 -10.531,-5.252 -12.302,-7.63 -1.641,-1.321 -2.461,-2.576 -2.461,-3.766 2.362,3.371 4.56,5.054 6.594,5.054 2.099,0 3.772,-1.981 5.019,-5.945 h 0.295 v 0.595 h 0.591 l 0.394,-2.18 v -0.397 l -0.394,-1.486 h -0.295 l -0.591,0.298 c 0,-1.917 -0.329,-3.832 -0.984,-5.748 h 0.295 c 0.459,0 0.886,0.858 1.28,2.577 h 0.295 c 0.261,-0.396 0.394,-0.826 0.394,-1.288 h 0.59 l 0.295,1.585 v 2.874 h 0.689 v -2.874 c 0.065,-0.397 0.262,-0.595 0.591,-0.595 v 2.776 h 0.885 l -0.294,-1.19 c 0.196,-0.463 0.294,-0.793 0.294,-0.991 h 0.985 c 0,0.858 0.197,1.288 0.591,1.288 l 0.688,-0.297 c 2.559,0.527 4.756,1.982 6.594,4.359 v -1.881 l 2.461,3.17 h 0.689 v -0.298 c -1.248,-1.652 -1.87,-2.709 -1.87,-3.17 h 0.295 l 1.575,1.288 h 0.295 v -0.693 l -0.295,-0.595 c 6.232,1.518 10.3,3.73 12.203,6.638 1.312,2.641 2.264,3.997 2.855,4.062 l 1.574,-0.296 c 0,0.924 0.623,1.982 1.87,3.17 h 0.296 v -0.595 c -1.969,-3.17 -3.118,-4.756 -3.445,-4.756 0,0.199 -0.098,0.298 -0.295,0.298 0,-0.331 -0.854,-1.684 -2.559,-4.063 h 0.393 c 0.591,0 1.115,0.825 1.575,2.477 h 0.295 v -0.594 l -0.295,-1.883 h 0.295 l 2.461,3.072 h 0.295 v -0.297 c -1.05,-1.917 -1.575,-3.072 -1.575,-3.469 v -0.594 h 0.394 c 0,1.123 0.525,1.948 1.574,2.477 0,-0.198 0.099,-0.297 0.296,-0.297 -0.853,-1.52 -1.279,-2.345 -1.279,-2.477 l 0.59,-0.397 h 0.393 c 1.05,0.925 1.576,1.685 1.576,2.28 h 0.59 v -0.298 l -1.279,-2.279 c 0.064,-0.396 0.295,-0.593 0.689,-0.593 h 0.295 l 1.279,1.287 h 0.296 l -0.296,-1.585 h 1.181 l 0.689,0.298 c 0,-0.861 0.524,-1.288 1.575,-1.288 h 1.869 c 4.593,0 8.465,3.368 11.614,10.106 l 1.575,1.287 v -0.594 c -0.46,-0.793 -1.083,-2.61 -1.87,-5.45 0.394,-0.066 0.59,-0.263 0.59,-0.594 l -2.165,-4.162 0.591,-0.296 h 0.295 l 2.559,3.169 h 0.295 v -0.296 l -1.575,-2.873 0.591,-0.297 c 1.049,1.914 1.705,2.872 1.968,2.872 v -0.694 l -0.984,-2.178 0.59,-0.298 c 0.788,1.255 1.312,1.882 1.575,1.882 h 0.394 v -0.296 c -0.46,-0.398 -0.689,-1.027 -0.689,-1.883 l 1.574,0.892 h 0.295 v -0.297 l -0.589,-0.893 0.589,-0.395 h 0.296 l 1.575,0.99 c 0,-0.198 0.13,-0.297 0.393,-0.297 l -0.393,-0.693 v -0.298 h 0.688 c 0.065,0.857 0.36,1.288 0.887,1.288 0.457,-0.067 0.688,-0.266 0.688,-0.595 0,-0.463 -0.328,-0.693 -0.984,-0.693 v -0.297 h 0.689 c 3.083,0.197 5.15,0.297 6.2,0.297 3.15,-0.926 4.724,-1.553 4.724,-1.883 -1.181,-0.265 -2.1,-0.595 -2.755,-0.991 -0.263,0 -1.314,0.132 -3.15,0.396 -0.656,0 -2.329,-0.232 -5.019,-0.693 v 0.693 c 2.559,0.397 4.756,0.595 6.594,0.595 h 2.165 v 0.595 c -0.196,0 -0.525,0.131 -0.984,0.396 -4.265,-0.661 -6.759,-0.991 -7.48,-0.991 -1.247,0.198 -3.149,0.298 -5.708,0.298 0,-3.503 -1.247,-6.012 -3.74,-7.532 h -0.984 c -3.084,0.397 -4.626,1.75 -4.626,4.063 0,1.981 1.443,3.469 4.331,4.459 v 0.298 c -1.969,0.659 -3.216,0.99 -3.74,0.99 h -0.591 l -7.283,-0.99 c -5.446,0.856 -10.038,2.113 -13.778,3.764 v 0.297 c 0.394,0.264 0.689,0.397 0.886,0.397 v 0.595 h -0.296 c -0.787,-0.793 -4.561,-2.676 -11.318,-5.648 l -0.59,0.297 -1.28,-0.693 c -2.1,0.263 -3.675,0.396 -4.723,0.396 -3.347,-1.85 -7.219,-3.666 -11.614,-5.45 -1.117,-1.322 -2.691,-3.534 -4.724,-6.639 v -1.585 h 0.689 c 0.065,0.858 0.36,1.288 0.886,1.288 v -0.594 c 0,-0.199 -0.099,-0.298 -0.295,-0.298 l 0.295,-0.694 -0.591,-0.89 0.591,-0.398 2.559,2.577 v -0.297 l -1.575,-3.17 v -0.298 c 0.458,0 0.886,-0.134 1.279,-0.396 0,0.924 1.345,2.74 4.035,5.449 -0.459,1.254 -0.885,1.882 -1.279,1.882 -0.394,-0.99 -0.787,-1.52 -1.181,-1.585 v 0.297 c 0.655,2.114 1.378,3.601 2.165,4.459 h 0.591 c 0.721,-4.624 2.918,-6.936 6.594,-6.936 v -0.396 c -2.232,-1.85 -3.806,-4.062 -4.725,-6.638 1.707,-0.595 2.658,-0.893 2.855,-0.893 l 3.74,5.055 c 0,0.395 -0.198,0.593 -0.591,0.593 -1.707,-1.188 -2.755,-2.774 -3.149,-4.755 -0.197,0 -0.492,-0.099 -0.886,-0.298 0,0.199 -0.132,0.298 -0.393,0.298 1.968,3.631 3.641,5.45 5.019,5.45 l 0.689,-0.398 v 0.398 c -0.197,0.395 -0.296,0.693 -0.296,0.89 l 0.886,0.694 c 1.181,-0.529 2.461,-1.916 3.838,-4.16 0,-0.397 -0.329,-0.595 -0.984,-0.595 l -1.575,0.892 c -1.377,-0.926 -2.625,-2.809 -3.739,-5.649 l 0.59,-0.298 h 0.591 c 0.261,0 1.115,0.825 2.558,2.478 h 0.296 c -1.05,-1.387 -1.575,-2.445 -1.575,-3.171 v -0.297 h 0.689 l 2.46,2.576 h 0.296 c -1.05,-1.519 -1.575,-2.709 -1.575,-3.567 l 0.984,-0.594 c 0.394,0 1.443,1.154 3.15,3.468 h 0.295 v -0.298 c -0.854,-1.321 -1.28,-2.576 -1.28,-3.765 0.459,0 1.313,0.726 2.559,2.18 v -0.594 c -0.853,-1.125 -1.279,-2.081 -1.279,-2.874 l 1.279,-0.99 1.28,2.278 v 0.892 c 0,1.057 -0.329,1.585 -0.984,1.585 v 2.279 c 0,0.33 -0.625,0.727 -1.87,1.19 0.197,1.518 0.492,2.279 0.886,2.279 1.377,0 2.952,-2.445 4.723,-7.333 0.328,-0.661 2.001,-1.817 5.02,-3.468 1.902,-0.727 4.756,-4.097 8.562,-10.106 4.461,-2.116 7.48,-4.228 9.055,-6.341 l -0.591,-0.298 h -2.559 l -5.905,3.17 c -1.838,1.784 -3.117,3.798 -3.838,6.045 h -0.295 c 0,-0.86 -0.33,-1.288 -0.985,-1.288 h -0.295 v 1.288 l 0.984,1.189 -1.279,0.992 -0.886,-0.595 h -0.393 l 0.393,1.485 v 0.397 c 0,0.396 -0.23,0.594 -0.689,0.594 h -0.295 c 0,-0.594 -0.428,-1.124 -1.28,-1.586 v 0.298 c 0.197,0.925 0.296,1.684 0.296,2.279 -0.263,0 -0.985,-0.661 -2.165,-1.982 l -0.296,0.693 c 1.049,1.454 1.87,2.181 2.461,2.181 v 0.297 c -1.575,0.461 -2.494,0.693 -2.756,0.693 -0.46,-0.198 -0.787,-0.296 -0.984,-0.296 0,1.055 -0.295,1.584 -0.886,1.584 -0.526,-1.916 -1.05,-2.873 -1.574,-2.873 h -0.394 v 0.297 c 0,0.264 0.327,1.322 0.984,3.171 l -1.279,0.991 c -0.527,0 -1.051,-0.859 -1.575,-2.576 2.165,-3.964 4.264,-7.036 6.299,-9.215 2.296,-5.879 3.444,-10.933 3.444,-15.161 h 0.689 c -0.657,-3.831 -1.082,-7.398 -1.279,-10.7 0,-1.585 0.426,-7.3 1.279,-17.142 l -0.393,-1.881 h -0.591 l -0.295,1.881 c 0.197,1.916 0.295,3.104 0.295,3.567 -0.393,4.69 -0.591,7.432 -0.591,8.224 h -0.393 v -3.567 c 0,-0.991 0.131,-3.402 0.393,-7.233 -0.262,-1.454 -0.59,-2.179 -0.984,-2.179 -0.787,0.132 -1.411,3.401 -1.87,9.809 1.049,8.521 1.575,13.341 1.575,14.466 -0.459,6.341 -0.984,9.512 -1.575,9.512 h 0.296 c -2.363,8.191 -4.66,13.575 -6.89,16.15 -1.771,2.907 -9.415,7.432 -22.931,13.576 -7.545,5.284 -11.318,12.881 -11.318,22.79 v 0.593 c 0,5.812 5.871,10.999 17.617,15.557 10.694,4.424 17.058,6.638 19.093,6.638 l 5.708,-1.288 h 0.886 c 6.429,1.255 11.481,1.883 15.156,1.883"
               style="fill:#231f20;fill-opacity:1;fill-rule:nonzero;stroke:none"
               id="path134"
               inkscape:connector-curvature="0" />
          </g>
        </g>
      </g>
    </g>
  </g>
</svg>
